<svg width="21" height="22" viewBox="0 0 21 22" fill="none" xmlns="http://www.w3.org/2000/svg">
<path d="M10.75 21.0371C5.18359 21.0371 0.662109 16.5156 0.662109 10.9492C0.662109 5.38281 5.18359 0.861328 10.75 0.861328C16.3164 0.861328 20.8379 5.38281 20.8379 10.9492C20.8379 16.5156 16.3164 21.0371 10.75 21.0371ZM10.75 19.0449C15.2324 19.0449 18.8555 15.4316 18.8555 10.9492C18.8555 6.4668 15.2324 2.84375 10.75 2.84375C6.26758 2.84375 2.64453 6.4668 2.64453 10.9492C2.64453 15.4316 6.26758 19.0449 10.75 19.0449ZM10.7402 6.35938C10.2422 6.35938 9.82227 5.94922 9.82227 5.44141C9.82227 4.94336 10.2422 4.52344 10.7402 4.52344C11.248 4.52344 11.6582 4.94336 11.6582 5.44141C11.6582 5.94922 11.248 6.35938 10.7402 6.35938ZM7.66406 7.29688C7.15625 7.29688 6.74609 6.88672 6.74609 6.37891C6.74609 5.88086 7.15625 5.46094 7.66406 5.46094C8.16211 5.46094 8.58203 5.88086 8.58203 6.37891C8.58203 6.88672 8.16211 7.29688 7.66406 7.29688ZM13.8262 7.29688C13.3184 7.29688 12.9082 6.88672 12.9082 6.37891C12.9082 5.88086 13.3184 5.46094 13.8262 5.46094C14.3242 5.46094 14.7441 5.88086 14.7441 6.37891C14.7441 6.88672 14.3242 7.29688 13.8262 7.29688ZM5.57422 9.79688C5.06641 9.79688 4.65625 9.37695 4.65625 8.87891C4.65625 8.37109 5.06641 7.95117 5.57422 7.95117C6.07227 7.95117 6.49219 8.37109 6.49219 8.87891C6.49219 9.37695 6.07227 9.79688 5.57422 9.79688ZM15.916 9.79688C15.4082 9.79688 14.9883 9.37695 14.9883 8.87891C14.9883 8.37109 15.4082 7.95117 15.916 7.95117C16.4141 7.95117 16.834 8.37109 16.834 8.87891C16.834 9.37695 16.4141 9.79688 15.916 9.79688ZM10.75 17.0234C9.85156 17.0234 9.17773 16.3594 9.17773 15.4512C9.17773 15.2852 9.23633 14.9824 9.27539 14.748L10.252 9.49414C10.3105 9.19141 10.5156 9.03516 10.75 9.03516C10.9844 9.03516 11.1895 9.19141 11.248 9.49414L12.2246 14.748C12.2734 14.9824 12.3223 15.2852 12.3223 15.4512C12.3223 16.3594 11.6582 17.0234 10.75 17.0234Z" fill="#F9625E"/>
</svg>
