<svg width="24" height="27" viewBox="0 0 24 27" fill="none" xmlns="http://www.w3.org/2000/svg">
<path d="M6.29688 4.51953C6.17969 4.51953 6.10156 4.43164 6.07227 4.30469C5.84766 3.23047 5.92578 3.18164 4.73438 2.97656C4.60742 2.95703 4.5293 2.86914 4.5293 2.75195C4.5293 2.64453 4.60742 2.54688 4.72461 2.52734C5.92578 2.30273 5.84766 2.26367 6.07227 1.18945C6.10156 1.07227 6.17969 0.984375 6.29688 0.984375C6.41406 0.984375 6.50195 1.07227 6.52148 1.18945C6.70703 2.26367 6.66797 2.30273 7.86914 2.52734C7.98633 2.54688 8.06445 2.64453 8.06445 2.75195C8.06445 2.86914 7.98633 2.95703 7.86914 2.97656C6.67773 3.21094 6.72656 3.23047 6.52148 4.32422C6.50195 4.43164 6.4043 4.51953 6.29688 4.51953ZM3.13281 9.06055C2.94727 9.06055 2.83008 8.93359 2.79102 8.73828C2.47852 7.09766 2.58594 7.04883 0.818359 6.77539C0.613281 6.74609 0.496094 6.61914 0.496094 6.43359C0.496094 6.26758 0.613281 6.12109 0.798828 6.0918C2.58594 5.78906 2.47852 5.74023 2.79102 4.11914C2.83008 3.93359 2.95703 3.80664 3.13281 3.80664C3.30859 3.80664 3.44531 3.93359 3.47461 4.11914C3.77734 5.75 3.67969 5.80859 5.4668 6.0918C5.65234 6.12109 5.76953 6.26758 5.76953 6.43359C5.76953 6.59961 5.65234 6.74609 5.4668 6.77539C3.67969 7.05859 3.77734 7.09766 3.47461 8.76758C3.44531 8.93359 3.29883 9.06055 3.13281 9.06055ZM7.63477 16.2383C7.40039 16.2383 7.22461 16.0723 7.19531 15.8379C6.66797 12.332 6.22852 11.9316 2.81055 11.4434C2.55664 11.4141 2.39062 11.2285 2.39062 10.9941C2.39062 10.7695 2.55664 10.5938 2.81055 10.5547C6.24805 10.0957 6.58984 9.64648 7.19531 6.16016C7.23438 5.92578 7.41016 5.75977 7.63477 5.75977C7.86914 5.75977 8.04492 5.92578 8.07422 6.16016C8.60156 9.66602 9.04102 10.1055 12.459 10.5547C12.7129 10.5938 12.8789 10.7695 12.8789 10.9941C12.8789 11.2285 12.7129 11.4141 12.459 11.4434C9.01172 11.9023 8.69922 12.3613 8.07422 15.8477C8.03516 16.0723 7.86914 16.2383 7.63477 16.2383ZM9.56836 6.85352C11.0625 6.28711 12.7129 5.96484 14.3535 5.96484C19.5391 5.96484 23.6895 9.27539 23.6895 14.0801C23.6895 16.502 22.3516 18.7285 20.3984 20.2715C20.5059 20.6621 20.5645 21.082 20.5645 21.5215C20.5645 23.2402 19.5879 24.9297 18.0254 25.9551C17.8105 26.0918 17.6543 26.1602 17.4102 26.1602C16.873 26.1602 16.5117 25.7891 16.5117 25.3398C16.5117 24.9492 16.7363 24.6953 17.0684 24.4609C18.1426 23.7578 18.7969 22.6543 18.7969 21.541C18.7969 21.4629 18.7969 21.3848 18.7871 21.3066C17.4688 21.9805 16.0137 22.3711 14.5488 22.3711C13.9824 22.3711 13.4844 22.2734 13.0547 22.0977C12.7031 22.1172 12.3418 22.1367 11.9805 22.1367C7 22.1367 3.10352 19.4707 3.10352 14.9199C3.10352 14.1973 3.2207 13.5137 3.43555 12.8691C4.28516 13.0156 4.83203 13.1328 5.10547 13.5723C4.95898 13.9922 4.87109 14.4414 4.87109 14.9297C4.87109 18.3867 7.83008 20.2422 11.6387 20.3789C11.6191 20.252 11.6094 20.125 11.6094 19.9883C11.6094 18.1426 13.3867 16.8828 15.7891 16.8828C17.3711 16.8828 18.7383 17.5469 19.5977 18.6406C20.9844 17.4492 21.9219 15.8086 21.9219 14.0703C21.9219 10.252 18.5039 7.74219 14.3633 7.74219C12.9766 7.74219 11.5801 8.00586 10.3105 8.49414C9.83203 8.2207 9.72461 7.82031 9.56836 6.85352ZM13.3867 19.959C13.3867 20.3496 13.875 20.6133 14.5488 20.6133C15.7793 20.6133 17.0293 20.2617 18.1426 19.6465C17.625 19.0312 16.834 18.6602 15.9062 18.6602C14.4902 18.6602 13.3867 19.1875 13.3867 19.959Z" fill="#F9625E"/>
</svg>
